# xmcd
#
# Track frame offsets: 
#        150
#        18716
#        40027
#        66418
#        84741
#        105570
#        123888
#        143108
#        161713
#        184698
#
# Disc length: 2754 seconds
#
# Revision: 2
# Processed by: cddbd v1.5.2PL0 Copyright (c) Steve Scherf et al.
# Submitted via: ExactAudioCopyFreeDBPlugin 1.0
#
DISCID=850ac00a
DTITLE=Pororoca Lindo - Carnaval De Los Borrachos
DYEAR=1900
DGENRE=
TTITLE0=Niku Wo Kurau (Spanish Ver.)
TTITLE1=Bonnie and Clyde (Spanish Ver.)
TTITLE2=トリコロール・ネオン
TTITLE3=Standing At The Crossroads
TTITLE4=A Boy In My Heart (Spanish Ver.)
TTITLE5=ハゲタカ
TTITLE6=Let’s Do The Gang (Spanish Ver.)
TTITLE7=Trance Corporation (Spanish Ver.)
TTITLE8=お前のひざを貸してくれ
TTITLE9=まかりとおす
EXTD=Powerd by gracenote music web API
EXTT0=
EXTT1=
EXTT2=
EXTT3=
EXTT4=
EXTT5=
EXTT6=
EXTT7=
EXTT8=
EXTT9=
PLAYORDER=
